<?xml version="1.0" encoding="utf-8"?>
<!-- Generator: Adobe Illustrator 22.0.0, SVG Export Plug-In . SVG Version: 6.00 Build 0)  -->
<svg version="1.1" id="圖層_1" xmlns="http://www.w3.org/2000/svg" xmlns:xlink="http://www.w3.org/1999/xlink" x="0px" y="0px"
	 viewBox="0 0 1080 1080" style="enable-background:new 0 0 1080 1080;" xml:space="preserve">
<style type="text/css">
	.st0{fill:#22A5DF;}
	.st1{fill:#2FAF5A;}
</style>
<g>
	<path class="st0" d="M233.1,432.6c-8.7-2.8-20-3-29-1.6c-35.5,6.5-52.7,48.6-37.2,79.5c10.8,21.6,35.7,32.7,59.2,28.5
		C280.6,529.6,285.8,449.4,233.1,432.6z M221.1,500.8c-20.3,6.4-30.2-26.1-10-31.6C231.3,463.6,240.9,494.6,221.1,500.8z"/>
	<path class="st0" d="M129.1,470.6c3.9,2,9,7.8,13.6,4.4c3.1-2.3,4.9-7.1,6.8-10.4c2.5-4.4,8-11.6,7-17c-0.8-4.4-5.9-7.4-9.5-9.6
		c-10.8-6.5-24.5-8.8-37-7c-60.6,8.7-62,98.4-1,108c8.4,1.3,16.9,0.6,25-1.8c7.3-2.2,21.9-8.1,21.7-17.6c-0.1-5.4-5.2-10.8-8-15
		c-2-3-4.1-7.3-7.1-9.3c-4-2.7-9.7,3.9-13.5,5.1c-11.8,3.8-26.6-5.1-23.6-18.8C106.1,469.8,119,465.6,129.1,470.6z"/>
</g>
<g>
	<path class="st1" d="M447.1,432.6c-8.7-2.8-20-3-29-1.6c-35.5,6.5-52.7,48.6-37.2,79.5c10.8,21.6,35.7,32.7,59.2,28.5
		C494.6,529.6,499.8,449.4,447.1,432.6z M435.1,500.8c-20.3,6.4-30.2-26.1-10-31.6C445.3,463.6,454.9,494.6,435.1,500.8z"/>
	<path class="st1" d="M563.1,432.6c-8.7-2.8-20-3-29-1.6c-35.5,6.5-52.7,48.6-37.2,79.5c10.8,21.6,35.7,32.7,59.2,28.5
		C610.6,529.6,615.8,449.4,563.1,432.6z M551.1,500.8c-20.3,6.4-30.2-26.1-10-31.6C561.3,463.6,570.9,494.6,551.1,500.8z"/>
	<path class="st1" d="M343.1,470.6c3.9,2,9,7.8,13.6,4.4c3.1-2.3,4.9-7.1,6.8-10.4c2.5-4.4,8-11.6,7-17c-0.8-4.4-5.9-7.4-9.5-9.6
		c-10.8-6.5-24.5-8.8-37-7c-60.6,8.7-62,98.4-1,108c8.4,1.3,16.9,0.6,25-1.8c7.3-2.2,21.9-8.1,21.7-17.6c-0.1-5.4-5.2-10.8-8-15
		c-2-3-4.1-7.3-7.1-9.3c-4-2.7-9.7,3.9-13.5,5.1c-11.8,3.8-26.6-5.1-23.6-18.8C320.1,469.8,333,465.6,343.1,470.6z"/>
</g>
<g>
	<path class="st0" d="M789.1,470.6c3.9,2,9,7.8,13.6,4.4c3.1-2.3,4.9-7.1,6.8-10.4c2.5-4.4,8-11.6,7-17c-0.8-4.4-5.9-7.4-9.5-9.6
		c-10.8-6.5-24.5-8.8-37-7c-60.6,8.7-62,98.4-1,108c8.4,1.3,16.9,0.6,25-1.8c7.3-2.2,21.9-8.1,21.7-17.6c-0.1-5.4-5.2-10.8-8-15
		c-2-3-4.1-7.3-7.1-9.3c-4-2.7-9.7,3.9-13.5,5.1c-11.8,3.8-26.6-5.1-23.6-18.8C766.1,469.8,779,465.6,789.1,470.6z"/>
	<path class="st0" d="M675.1,473.6c-7.4-9.9-14.7-19.9-22-30c-2.4-3.6-5.1-9.9-9.2-11.9c-5.8-2.9-19.4,1.4-25.8,2.2
		c-2.4,0.3-6.4,0.3-8,2.3c-3.2,4.1,0,17.2,0,22.4v55c0,6-3,15.3-0.3,20.7c1.5,2.9,5.5,2.3,8.3,2.3c5.7,0,25.3,3,29-1.6
		c1.9-2.4,1-7.4,1-10.4c0-9-1-17.9-1-27c7.8,8,14.2,17.1,20.9,26c2.9,4,5.8,9.7,10.1,12c8,4.2,24.9,1,34,1l2-103h-40L675.1,473.6z"
		/>
	<path class="st0" d="M1015.9,512.6c0.2-2.2,0.5-5.4-1.4-7c-4.1-3.3-16.4,0-21.4,0c11.6-11.6,25-30.3,13.4-47
		c-10.8-15.3-33.9-14.5-50.4-12c-5.6,0.7-15.7,2.2-19,7.4c-2.1,3.3-0.1,8.1,0.6,11.6c0.7,3.6-0.2,16,3.7,17
		c6,1.7,28.7-16.4,29.7,0.5c0.5,8.5-13.6,23-21,25.7c-3.7,1.4-12.4,0-13.6,5c-0.8,3.1,0.6,6.8,1.5,9.8c0.8,3.5,0.6,10.6,3.7,13
		c3.4,2.6,11.4,1,15.4,0.4c10.4-1.4,21.5-0.4,32-0.4c5.5,0,20,5.3,24.4,2C1017.5,535.6,1015.5,517.7,1015.9,512.6z"/>
	<path class="st0" d="M893.1,432.6c-8.7-2.8-20-3-29-1.6c-35.5,6.5-52.7,48.6-37.2,79.5c10.8,21.6,35.7,32.7,59.2,28.5
		C940.6,529.6,945.8,449.4,893.1,432.6z M881.1,500.8c-20.3,6.4-30.2-26.1-10-31.6C891.3,463.6,900.9,494.6,881.1,500.8z"/>
</g>
<path d="M326.4,583.3c0,1.5,0.2,2.8,0.7,4c0.5,1.1,1.1,2.1,1.8,2.9s1.6,1.4,2.6,1.8c1,0.4,2,0.6,3,0.6c0.8,0,1.6-0.1,2.3-0.4
	c0.7-0.3,1.4-0.7,2-1.1c0.6-0.5,1.2-1,1.7-1.7c0.5-0.6,1-1.3,1.5-2l2.4,1.7c-0.5,0.8-1.1,1.6-1.8,2.4c-0.7,0.8-1.5,1.4-2.4,2
	c-0.9,0.6-1.9,1-2.9,1.4c-1.1,0.3-2.2,0.5-3.4,0.5c-2,0-3.8-0.3-5.5-0.9c-1.7-0.6-3.1-1.4-4.3-2.5c-1.2-1.1-2.2-2.3-2.8-3.8
	c-0.7-1.5-1-3.1-1-5c0-1.8,0.3-3.4,1-4.9s1.6-2.8,2.7-3.8s2.6-1.9,4.2-2.5c1.6-0.6,3.5-0.9,5.4-0.9c1.3,0,2.6,0.2,3.7,0.5
	c1.1,0.3,2.1,0.7,3,1.3c0.9,0.6,1.7,1.2,2.4,2c0.7,0.8,1.3,1.6,1.9,2.5l-2.4,1.7c-0.5-0.7-1-1.3-1.6-2s-1.2-1.2-1.8-1.6
	c-0.6-0.5-1.3-0.8-2-1.1c-0.7-0.3-1.5-0.4-2.2-0.4c-1.1,0-2.1,0.2-3,0.6c-1,0.4-1.8,1-2.5,1.8c-0.7,0.8-1.3,1.7-1.7,2.9
	C326.6,580.5,326.4,581.8,326.4,583.3z"/>
<path d="M361,595.4c-1.2,0-2.4-0.1-3.6-0.4c-1.1-0.3-2.2-0.7-3.2-1.2c-1-0.5-1.9-1.1-2.7-1.9c-0.8-0.7-1.5-1.5-2-2.5
	c-0.6-0.9-1-1.9-1.3-3c-0.3-1.1-0.5-2.2-0.5-3.4c0-1.2,0.2-2.3,0.5-3.3c0.3-1,0.7-2,1.3-2.9c0.6-0.9,1.2-1.7,2-2.4
	c0.8-0.7,1.7-1.3,2.7-1.8c1-0.5,2-0.9,3.2-1.1s2.3-0.4,3.6-0.4c1.9,0,3.6,0.3,5.2,0.9c1.6,0.6,3,1.4,4.2,2.5
	c1.2,1.1,2.1,2.3,2.8,3.8c0.7,1.5,1,3.1,1,4.8c0,1.8-0.3,3.5-1,5c-0.7,1.5-1.6,2.8-2.8,3.9s-2.6,1.9-4.2,2.5
	C364.6,595.1,362.9,595.4,361,595.4z M361,593.5c1.1,0,2.1-0.3,3-0.8c0.9-0.5,1.6-1.2,2.2-2.1c0.6-0.9,1-2,1.3-3.2
	c0.3-1.3,0.4-2.6,0.4-4.1c0-1.5-0.1-2.8-0.4-4c-0.3-1.2-0.7-2.3-1.3-3.1s-1.3-1.6-2.2-2.1c-0.9-0.5-1.8-0.7-3-0.7
	c-1.1,0-2.1,0.2-3,0.7c-0.9,0.5-1.6,1.2-2.2,2.1s-1,1.9-1.3,3.1c-0.3,1.2-0.4,2.5-0.4,4c0,1.5,0.1,2.9,0.4,4.1
	c0.3,1.3,0.7,2.3,1.3,3.2c0.6,0.9,1.3,1.6,2.2,2.1C358.9,593.2,359.9,593.5,361,593.5z"/>
<path d="M377.9,594.9v-1.1c1.6-1.5,3-2.9,4.2-4.1c1.2-1.2,2.2-2.2,3-3.1s1.5-1.7,2-2.4c0.5-0.7,0.9-1.3,1.2-1.8
	c0.3-0.5,0.5-1,0.6-1.5c0.1-0.4,0.1-0.9,0.1-1.3c0-0.6-0.1-1.2-0.2-1.7s-0.4-1-0.7-1.5c-0.3-0.4-0.7-0.8-1.2-1s-1-0.4-1.6-0.4
	c-0.5,0-1,0.1-1.5,0.3c-0.5,0.2-0.9,0.5-1.3,0.8s-0.7,0.8-1,1.2c-0.3,0.5-0.5,1-0.6,1.5h-2.5c0.1-1,0.3-2,0.8-2.9
	c0.5-0.9,1-1.7,1.8-2.3c0.7-0.7,1.6-1.2,2.5-1.6c0.9-0.4,1.9-0.6,2.9-0.6c1.3,0,2.4,0.2,3.4,0.5c1,0.4,1.8,0.8,2.4,1.4
	c0.6,0.6,1.1,1.3,1.5,2c0.3,0.8,0.5,1.6,0.5,2.4c0,0.8-0.2,1.7-0.6,2.6s-1,1.9-1.8,2.9s-1.9,2.2-3.1,3.5c-1.3,1.3-2.8,2.8-4.5,4.4
	h11.3l-2,3.4H377.9z"/>
<path d="M417.4,595.3c-1.4,0-2.6-0.2-3.6-0.5c-1-0.3-1.9-0.8-2.7-1.3c-0.7-0.6-1.3-1.3-1.7-2s-0.7-1.7-0.9-2.6h3.9
	c0.1,0.6,0.3,1.1,0.6,1.6c0.3,0.5,0.6,0.9,1,1.3s0.9,0.7,1.4,0.9s1.2,0.3,1.9,0.3c0.5,0,1,0,1.4-0.2c0.5-0.1,0.9-0.3,1.3-0.5
	c0.4-0.2,0.7-0.5,0.9-0.9c0.2-0.4,0.3-0.8,0.3-1.4c0-0.7-0.2-1.3-0.5-1.8c-0.4-0.5-0.8-1-1.4-1.5c-0.6-0.4-1.2-0.8-2-1.2
	c-0.7-0.4-1.5-0.8-2.3-1.1c-0.8-0.4-1.5-0.8-2.3-1.2c-0.7-0.4-1.4-0.9-2-1.4c-0.6-0.5-1-1.1-1.4-1.8s-0.5-1.4-0.5-2.2
	c0-0.9,0.2-1.8,0.6-2.5c0.4-0.8,1-1.5,1.7-2c0.8-0.6,1.7-1,2.8-1.4c1.1-0.3,2.4-0.5,3.8-0.5c1.2,0,2.2,0.2,3.2,0.5
	c0.9,0.3,1.8,0.8,2.5,1.3c0.7,0.6,1.3,1.2,1.8,2c0.5,0.8,0.9,1.6,1.1,2.5h-3.6c-0.2-0.5-0.4-1.1-0.7-1.6c-0.3-0.5-0.6-0.9-1-1.3
	c-0.4-0.4-0.9-0.7-1.5-0.9s-1.2-0.3-2-0.3c-0.7,0-1.4,0.1-1.9,0.3c-0.5,0.2-0.9,0.4-1.2,0.7c-0.3,0.3-0.5,0.6-0.7,1
	c-0.1,0.4-0.2,0.7-0.2,1.1c0,0.6,0.2,1.2,0.5,1.7c0.4,0.5,0.8,1,1.4,1.4c0.6,0.4,1.3,0.8,2,1.2c0.8,0.4,1.5,0.8,2.3,1.2
	c0.8,0.4,1.6,0.8,2.3,1.3c0.8,0.4,1.4,0.9,2,1.4c0.6,0.5,1.1,1.1,1.4,1.7c0.4,0.6,0.5,1.4,0.5,2.2c0,0.9-0.2,1.8-0.6,2.6
	c-0.4,0.8-1,1.5-1.7,2.1c-0.8,0.6-1.7,1.1-2.8,1.4C420.2,595.1,418.9,595.3,417.4,595.3z"/>
<path d="M429.1,579.6v-1.7c0.6,0,1.2-0.2,1.8-0.5c0.6-0.3,1.1-0.7,1.5-1.3c0.5-0.5,0.8-1.2,1.2-1.9c0.3-0.7,0.6-1.5,0.7-2.3h2.9v5.6
	h4.3v2.1h-4.3v11.2c0,0.4,0.1,0.7,0.3,0.9c0.2,0.3,0.4,0.4,0.7,0.4c0.2,0,0.4-0.1,0.6-0.2c0.2-0.1,0.4-0.3,0.6-0.4
	c0.2-0.2,0.4-0.3,0.5-0.5c0.2-0.2,0.3-0.3,0.3-0.4l1.8,1.4c-0.3,0.4-0.6,0.9-1,1.3c-0.4,0.4-0.8,0.7-1.2,1s-1,0.5-1.6,0.7
	s-1.3,0.2-2.1,0.2c-0.7,0-1.4-0.1-1.9-0.3s-1-0.5-1.4-0.9c-0.4-0.4-0.6-0.8-0.8-1.3c-0.2-0.5-0.3-1.1-0.3-1.7v-11.4H429.1z"/>
<path d="M453.2,595.2c-1.4,0-2.7-0.2-3.8-0.7c-1.2-0.5-2.2-1.1-3-1.9c-0.9-0.8-1.5-1.7-2-2.8c-0.5-1.1-0.7-2.2-0.7-3.5
	c0-1.3,0.2-2.6,0.7-3.7c0.5-1.1,1.1-2.1,2-2.9c0.9-0.8,1.9-1.5,3-1.9s2.5-0.7,3.8-0.7s2.7,0.2,3.9,0.7c1.2,0.5,2.2,1.1,3.1,1.9
	c0.9,0.8,1.5,1.7,2,2.8c0.5,1.1,0.7,2.2,0.7,3.4c0,1.3-0.2,2.5-0.7,3.6c-0.5,1.1-1.2,2.1-2,3c-0.9,0.9-1.9,1.5-3.1,2
	C455.8,595,454.6,595.2,453.2,595.2z M453.8,593.1c0.5,0,0.9-0.2,1.3-0.5c0.4-0.3,0.8-0.7,1-1.3c0.3-0.5,0.5-1.1,0.7-1.8
	c0.2-0.7,0.2-1.4,0.2-2.2c0-1.1-0.1-2.2-0.2-3.1c-0.2-1-0.4-1.8-0.8-2.6c-0.4-0.7-0.9-1.3-1.5-1.8s-1.3-0.6-2.2-0.6
	c-0.4,0-0.8,0.2-1.2,0.5c-0.4,0.3-0.7,0.7-1,1.2c-0.3,0.5-0.5,1.1-0.7,1.8c-0.2,0.7-0.3,1.4-0.3,2.2c0,1.1,0.1,2.2,0.3,3.2
	c0.2,1,0.5,1.9,0.9,2.6c0.4,0.8,0.9,1.3,1.4,1.8C452.4,592.9,453.1,593.1,453.8,593.1z"/>
<path d="M471.3,594.9h-5.3v-17.4h5.3v1.3c0.6-0.6,1.2-1.1,1.9-1.5c0.7-0.4,1.4-0.6,2.2-0.6c0.5,0,0.9,0.1,1.3,0.2
	c0.4,0.1,0.8,0.3,1.1,0.5c0.3,0.2,0.6,0.5,0.7,0.8c0.2,0.3,0.3,0.6,0.3,0.9c0,0.3-0.1,0.6-0.2,0.8s-0.3,0.5-0.5,0.7
	c-0.2,0.2-0.5,0.3-0.7,0.4c-0.3,0.1-0.6,0.2-0.9,0.2c-0.4,0-0.8-0.1-1-0.2c-0.3-0.1-0.5-0.3-0.7-0.4c-0.2-0.2-0.4-0.3-0.7-0.4
	s-0.5-0.2-0.8-0.2c-0.2,0-0.4,0.1-0.5,0.2s-0.4,0.3-0.5,0.5s-0.3,0.5-0.5,0.8c-0.2,0.3-0.3,0.6-0.5,0.9V594.9z"/>
<path d="M488.8,595.3c-1.2,0-2.4-0.2-3.5-0.7s-2-1.1-2.8-1.9s-1.5-1.7-1.9-2.7c-0.5-1-0.7-2.1-0.7-3.3c0-1.4,0.2-2.6,0.6-3.8
	s1-2.2,1.8-3c0.8-0.9,1.7-1.5,2.9-2c1.1-0.5,2.4-0.7,3.7-0.7c1.2,0,2.3,0.2,3.3,0.6c1,0.4,1.9,0.9,2.6,1.6c0.7,0.7,1.3,1.5,1.7,2.4
	c0.4,0.9,0.6,1.9,0.6,2.9H485c0,1,0.2,1.9,0.4,2.8c0.2,0.9,0.6,1.7,1,2.3c0.4,0.7,0.9,1.2,1.5,1.6c0.6,0.4,1.2,0.6,1.8,0.6
	c0.6,0,1.2-0.1,1.7-0.3c0.6-0.2,1.1-0.5,1.6-0.8c0.5-0.3,0.9-0.7,1.2-1.2c0.3-0.5,0.6-1,0.8-1.5l2.7,0.4c-0.3,0.9-0.7,1.8-1.3,2.7
	c-0.6,0.8-1.3,1.6-2.1,2.2c-0.8,0.6-1.7,1.1-2.6,1.5C490.7,595.1,489.7,595.3,488.8,595.3z M491,582.8c0-0.5-0.1-1-0.3-1.4
	c-0.2-0.4-0.4-0.8-0.7-1.1c-0.3-0.3-0.6-0.5-1-0.7c-0.4-0.2-0.8-0.2-1.2-0.2c-0.3,0-0.7,0.1-1,0.2c-0.3,0.2-0.6,0.4-0.9,0.7
	c-0.3,0.3-0.5,0.7-0.7,1.1s-0.3,0.9-0.3,1.4H491z"/>
<path d="M512.3,593.9c-0.6,0.4-1.3,0.8-2.1,1s-1.5,0.4-2.2,0.4c-1.1,0-2.1-0.2-3.1-0.7c-1-0.5-1.8-1.1-2.5-2
	c-0.7-0.8-1.3-1.8-1.7-2.8c-0.4-1.1-0.6-2.2-0.6-3.4c0-1.2,0.3-2.3,0.8-3.4s1.2-2.1,2.1-3c0.9-0.9,1.9-1.6,3-2.1
	c1.2-0.5,2.4-0.8,3.7-0.8c0.5,0,1,0,1.4,0.1c0.5,0.1,0.9,0.2,1.2,0.3v-7.1l5.3-1.5v25.9h-5.3V593.9z M512.3,583.1
	c0-0.6-0.1-1.1-0.3-1.5c-0.2-0.5-0.4-0.9-0.7-1.2c-0.3-0.3-0.6-0.6-1-0.8s-0.7-0.3-1.1-0.3c-0.5,0-0.9,0.2-1.4,0.5
	c-0.4,0.3-0.8,0.7-1.1,1.3c-0.3,0.5-0.6,1.2-0.8,2s-0.3,1.6-0.3,2.5c0,1,0.1,1.9,0.3,2.8s0.5,1.6,0.9,2.3c0.4,0.7,0.8,1.2,1.3,1.6
	c0.5,0.4,1,0.6,1.6,0.6c0.2,0,0.4,0,0.6-0.1c0.2-0.1,0.4-0.1,0.7-0.3s0.4-0.2,0.6-0.4s0.4-0.3,0.5-0.5V583.1z"/>
<path d="M531.2,571.9c0-0.4,0.1-0.7,0.2-1c0.1-0.3,0.3-0.6,0.6-0.8c0.3-0.2,0.6-0.4,0.9-0.6c0.3-0.1,0.7-0.2,1.1-0.2
	s0.8,0.1,1.1,0.2s0.7,0.3,0.9,0.6s0.5,0.5,0.6,0.8c0.2,0.3,0.2,0.6,0.2,1c0,0.4-0.1,0.7-0.2,1c-0.2,0.3-0.4,0.6-0.6,0.8
	c-0.3,0.2-0.6,0.4-0.9,0.6s-0.7,0.2-1.1,0.2s-0.8-0.1-1.1-0.2c-0.3-0.1-0.6-0.3-0.9-0.6c-0.3-0.2-0.5-0.5-0.6-0.8
	C531.2,572.6,531.2,572.3,531.2,571.9z M531.4,578.4l5.3-1.5v17.9h-5.3V578.4z"/>
<path d="M551.8,583c0-0.9-0.2-1.6-0.5-2c-0.4-0.5-0.8-0.7-1.2-0.7c-0.2,0-0.5,0-0.8,0.1s-0.6,0.2-0.9,0.4s-0.7,0.4-1,0.6
	c-0.3,0.2-0.7,0.5-1,0.8v12.8h-5.3v-17.4h5.3v1.4c0.8-0.6,1.7-1,2.6-1.3c0.9-0.3,1.9-0.4,2.8-0.4c0.7,0,1.4,0.1,2,0.4
	c0.6,0.3,1.2,0.7,1.7,1.1c0.5,0.5,0.9,1,1.2,1.7c0.3,0.6,0.4,1.3,0.4,2.1v12.5h-5.3V583z"/>
<path d="M576.6,583.3c0,1.5,0.2,2.8,0.7,4c0.5,1.1,1.1,2.1,1.8,2.9s1.6,1.4,2.6,1.8c1,0.4,2,0.6,3,0.6c0.8,0,1.6-0.1,2.3-0.4
	c0.7-0.3,1.4-0.7,2-1.1c0.6-0.5,1.2-1,1.7-1.7c0.5-0.6,1-1.3,1.5-2l2.4,1.7c-0.5,0.8-1.1,1.6-1.8,2.4c-0.7,0.8-1.5,1.4-2.4,2
	c-0.9,0.6-1.9,1-2.9,1.4c-1.1,0.3-2.2,0.5-3.4,0.5c-2,0-3.8-0.3-5.5-0.9c-1.7-0.6-3.1-1.4-4.3-2.5c-1.2-1.1-2.2-2.3-2.8-3.8
	c-0.7-1.5-1-3.1-1-5c0-1.8,0.3-3.4,1-4.9s1.6-2.8,2.7-3.8s2.6-1.9,4.2-2.5c1.6-0.6,3.5-0.9,5.4-0.9c1.3,0,2.6,0.2,3.7,0.5
	c1.1,0.3,2.1,0.7,3,1.3c0.9,0.6,1.7,1.2,2.4,2s1.3,1.6,1.9,2.5l-2.4,1.7c-0.5-0.7-1-1.3-1.6-2c-0.6-0.6-1.2-1.2-1.8-1.6
	c-0.6-0.5-1.3-0.8-2-1.1c-0.7-0.3-1.5-0.4-2.2-0.4c-1.1,0-2.1,0.2-3,0.6c-1,0.4-1.8,1-2.5,1.8c-0.7,0.8-1.3,1.7-1.7,2.9
	C576.8,580.5,576.6,581.8,576.6,583.3z"/>
<path d="M611.3,595.4c-1.2,0-2.4-0.1-3.6-0.4c-1.1-0.3-2.2-0.7-3.2-1.2c-1-0.5-1.9-1.1-2.7-1.9c-0.8-0.7-1.5-1.5-2-2.5
	c-0.6-0.9-1-1.9-1.3-3c-0.3-1.1-0.5-2.2-0.5-3.4c0-1.2,0.2-2.3,0.5-3.3s0.7-2,1.3-2.9c0.6-0.9,1.2-1.7,2-2.4
	c0.8-0.7,1.7-1.3,2.7-1.8c1-0.5,2-0.9,3.2-1.1s2.3-0.4,3.6-0.4c1.9,0,3.6,0.3,5.2,0.9c1.6,0.6,3,1.4,4.2,2.5
	c1.2,1.1,2.1,2.3,2.8,3.8c0.7,1.5,1,3.1,1,4.8c0,1.8-0.3,3.5-1,5c-0.7,1.5-1.6,2.8-2.8,3.9s-2.6,1.9-4.2,2.5
	C614.8,595.1,613.1,595.4,611.3,595.4z M611.3,593.5c1.1,0,2.1-0.3,3-0.8c0.9-0.5,1.6-1.2,2.2-2.1c0.6-0.9,1-2,1.3-3.2
	c0.3-1.3,0.4-2.6,0.4-4.1c0-1.5-0.1-2.8-0.4-4c-0.3-1.2-0.7-2.3-1.3-3.1c-0.6-0.9-1.3-1.6-2.2-2.1c-0.9-0.5-1.8-0.7-3-0.7
	c-1.1,0-2.1,0.2-3,0.7c-0.9,0.5-1.6,1.2-2.2,2.1s-1,1.9-1.3,3.1c-0.3,1.2-0.4,2.5-0.4,4c0,1.5,0.1,2.9,0.4,4.1
	c0.3,1.3,0.7,2.3,1.3,3.2c0.6,0.9,1.3,1.6,2.2,2.1C609.1,593.2,610.1,593.5,611.3,593.5z"/>
<path d="M634.3,583.3c0,1.5,0.2,2.8,0.7,4c0.5,1.1,1.1,2.1,1.8,2.9c0.8,0.8,1.6,1.4,2.6,1.8c1,0.4,2,0.6,3,0.6
	c0.8,0,1.6-0.1,2.3-0.4c0.7-0.3,1.4-0.7,2-1.1c0.6-0.5,1.2-1,1.7-1.7c0.5-0.6,1-1.3,1.5-2l2.4,1.7c-0.5,0.8-1.1,1.6-1.8,2.4
	s-1.5,1.4-2.4,2c-0.9,0.6-1.9,1-2.9,1.4c-1.1,0.3-2.2,0.5-3.4,0.5c-2,0-3.8-0.3-5.5-0.9c-1.7-0.6-3.1-1.4-4.3-2.5
	c-1.2-1.1-2.2-2.3-2.8-3.8s-1-3.1-1-5c0-1.8,0.3-3.4,1-4.9c0.6-1.5,1.6-2.8,2.7-3.8s2.6-1.9,4.2-2.5c1.6-0.6,3.5-0.9,5.4-0.9
	c1.3,0,2.6,0.2,3.7,0.5c1.1,0.3,2.1,0.7,3,1.3c0.9,0.6,1.7,1.2,2.4,2s1.3,1.6,1.9,2.5l-2.4,1.7c-0.5-0.7-1-1.3-1.6-2
	c-0.6-0.6-1.2-1.2-1.8-1.6c-0.6-0.5-1.3-0.8-2-1.1c-0.7-0.3-1.5-0.4-2.2-0.4c-1.1,0-2.1,0.2-3,0.6c-1,0.4-1.8,1-2.5,1.8
	c-0.7,0.8-1.3,1.7-1.7,2.9C634.5,580.5,634.3,581.8,634.3,583.3z"/>
<path d="M668.9,595.4c-1.2,0-2.4-0.1-3.6-0.4c-1.1-0.3-2.2-0.7-3.2-1.2c-1-0.5-1.9-1.1-2.7-1.9c-0.8-0.7-1.5-1.5-2-2.5
	c-0.6-0.9-1-1.9-1.3-3c-0.3-1.1-0.5-2.2-0.5-3.4c0-1.2,0.2-2.3,0.5-3.3c0.3-1,0.7-2,1.3-2.9c0.6-0.9,1.2-1.7,2-2.4
	c0.8-0.7,1.7-1.3,2.7-1.8c1-0.5,2-0.9,3.2-1.1s2.3-0.4,3.6-0.4c1.9,0,3.6,0.3,5.2,0.9c1.6,0.6,3,1.4,4.2,2.5
	c1.2,1.1,2.1,2.3,2.8,3.8c0.7,1.5,1,3.1,1,4.8c0,1.8-0.3,3.5-1,5c-0.7,1.5-1.6,2.8-2.8,3.9s-2.6,1.9-4.2,2.5
	C672.5,595.1,670.8,595.4,668.9,595.4z M668.9,593.5c1.1,0,2.1-0.3,3-0.8c0.9-0.5,1.6-1.2,2.2-2.1c0.6-0.9,1-2,1.3-3.2
	c0.3-1.3,0.4-2.6,0.4-4.1c0-1.5-0.1-2.8-0.4-4c-0.3-1.2-0.7-2.3-1.3-3.1c-0.6-0.9-1.3-1.6-2.2-2.1c-0.9-0.5-1.8-0.7-3-0.7
	c-1.1,0-2.1,0.2-3,0.7c-0.9,0.5-1.6,1.2-2.2,2.1s-1,1.9-1.3,3.1c-0.3,1.2-0.4,2.5-0.4,4c0,1.5,0.1,2.9,0.4,4.1
	c0.3,1.3,0.7,2.3,1.3,3.2c0.6,0.9,1.3,1.6,2.2,2.1C666.8,593.2,667.8,593.5,668.9,593.5z"/>
<path d="M698.6,595.4c-1.2,0-2.4-0.1-3.6-0.4c-1.1-0.3-2.2-0.7-3.2-1.2c-1-0.5-1.9-1.1-2.7-1.9c-0.8-0.7-1.5-1.5-2-2.5
	c-0.6-0.9-1-1.9-1.3-3c-0.3-1.1-0.5-2.2-0.5-3.4c0-1.2,0.2-2.3,0.5-3.3c0.3-1,0.7-2,1.3-2.9c0.6-0.9,1.2-1.7,2-2.4
	c0.8-0.7,1.7-1.3,2.7-1.8c1-0.5,2-0.9,3.2-1.1s2.3-0.4,3.6-0.4c1.9,0,3.6,0.3,5.2,0.9c1.6,0.6,3,1.4,4.2,2.5
	c1.2,1.1,2.1,2.3,2.8,3.8c0.7,1.5,1,3.1,1,4.8c0,1.8-0.3,3.5-1,5c-0.7,1.5-1.6,2.8-2.8,3.9s-2.6,1.9-4.2,2.5
	C702.2,595.1,700.4,595.4,698.6,595.4z M698.6,593.5c1.1,0,2.1-0.3,3-0.8c0.9-0.5,1.6-1.2,2.2-2.1c0.6-0.9,1-2,1.3-3.2
	c0.3-1.3,0.4-2.6,0.4-4.1c0-1.5-0.1-2.8-0.4-4c-0.3-1.2-0.7-2.3-1.3-3.1c-0.6-0.9-1.3-1.6-2.2-2.1c-0.9-0.5-1.8-0.7-3-0.7
	c-1.1,0-2.1,0.2-3,0.7c-0.9,0.5-1.6,1.2-2.2,2.1s-1,1.9-1.3,3.1c-0.3,1.2-0.4,2.5-0.4,4c0,1.5,0.1,2.9,0.4,4.1
	c0.3,1.3,0.7,2.3,1.3,3.2c0.6,0.9,1.3,1.6,2.2,2.1C696.4,593.2,697.4,593.5,698.6,593.5z"/>
<path d="M716.2,571.8h3.6l13.2,14.7v-14.7h3.6v23.5h-2.5L719.8,579v15.9h-3.6V571.8z"/>
</svg>
